<?xml version="1.0" encoding="UTF-8" standalone="no"?>
<!-- Created with Inkscape (http://www.inkscape.org/) -->

<svg
   width="1200"
   height="320"
   viewBox="0 0 317.49999 84.666666"
   version="1.1"
   id="svg1"
   inkscape:version="1.4.3 (0d15f75042, 2025-12-25)"
   sodipodi:docname="New_New_Logo_Blanc.svg"
   inkscape:export-filename="New_New_Logo_Blanc.png"
   inkscape:export-xdpi="96"
   inkscape:export-ydpi="96"
   xmlns:inkscape="http://www.inkscape.org/namespaces/inkscape"
   xmlns:sodipodi="http://sodipodi.sourceforge.net/DTD/sodipodi-0.dtd"
   xmlns="http://www.w3.org/2000/svg"
   xmlns:svg="http://www.w3.org/2000/svg">
  <sodipodi:namedview
     id="namedview1"
     pagecolor="#525252"
     bordercolor="#000000"
     borderopacity="0.25"
     inkscape:showpageshadow="2"
     inkscape:pageopacity="0.0"
     inkscape:pagecheckerboard="true"
     inkscape:deskcolor="#d1d1d1"
     inkscape:document-units="mm"
     inkscape:zoom="0.78441714"
     inkscape:cx="548.17772"
     inkscape:cy="108.36071"
     inkscape:window-width="1920"
     inkscape:window-height="1011"
     inkscape:window-x="0"
     inkscape:window-y="0"
     inkscape:window-maximized="1"
     inkscape:current-layer="layer1" />
  <defs
     id="defs1" />
  <g
     inkscape:label="Calque 1"
     inkscape:groupmode="layer"
     id="layer1">
    <text
       xml:space="preserve"
       style="font-size:20.9275px;writing-mode:lr-tb;direction:ltr;fill:#e6371c;stroke:none;stroke-width:194.838;stroke-linejoin:round"
       x="154.26555"
       y="84.83316"
       id="text1"
       transform="scale(1.0044383,0.99558129)"><tspan
         sodipodi:role="line"
         id="tspan1"
         x="154.26555"
         y="84.83316"
         style="font-style:normal;font-variant:normal;font-weight:normal;font-stretch:normal;font-size:20.9275px;font-family:'Bebas Neue';-inkscape-font-specification:'Bebas Neue';stroke:none;stroke-width:194.838"><tspan
   style="font-style:normal;font-variant:normal;font-weight:normal;font-stretch:normal;font-family:'Bebas Neue';-inkscape-font-specification:'Bebas Neue';fill:#ffffff;stroke-width:194.838"
   id="tspan2">Formation</tspan> Industrielle</tspan></text>
    <rect
       style="fill:#ffffff;stroke-width:19.774;stroke-linejoin:round"
       id="rect2"
       width="192.45277"
       height="2.5580273"
       x="75.473427"
       y="59.516998" />
    <path
       d="m 75.57946,6.2920137 c 1.681971,2.934562 3.326394,5.7154153 5.04926,8.5336713 l 11.519648,-0.08264 c 12.437392,-0.08925 12.833252,0.0871 14.503352,2.570151 1.8019,2.613714 1.14265,6.272912 -1.45034,8.276752 -1.14271,0.87124 -1.62614,0.914797 -15.382287,0.914797 H 75.57946 v 11.543856 11.543877 h 4.834406 4.834447 V 42.448335 35.26064 l 10.899474,-0.130709 10.855513,-0.13067 2.24951,-1.044344 c 3.07646,-1.481082 6.01296,-4.618653 7.0238,-7.537299 1.14266,-3.397828 0.70319,-10.324159 -0.79107,-13.242801 -1.36242,-2.570151 -3.64782,-4.7046811 -6.46055,-6.0115384 -1.93381,-0.8712334 -2.85677,-0.9147988 -17.711639,-1.0454853 -8.005044,-0.00974 -14.818901,-0.098722 -15.699769,0.047179 -0.06942,0.011497 -0.05452,0.09174 -0.03416,0.1270661 z"
       id="path3"
       sodipodi:nodetypes="scsccsccccccccccccccss"
       style="fill:#ffffff;stroke-width:0.0437554" />
    <path
       d="m 167.30552,6.6751651 c 0.41285,1.0214136 3.22446,6.6031729 4.30704,7.3619489 1.05255,0.827679 1.84588,0.705895 13.18483,0.705895 11.33894,0 12.17398,0.04356 13.49247,0.871239 1.84587,1.132611 3.03251,3.920568 2.63695,6.055099 -0.39554,2.178087 -0.96688,3.00577 -2.54906,3.964124 -1.31848,0.827683 -2.32932,0.87124 -16.21732,0.87124 h -14.85491 v 11.543886 11.543877 h 4.83444 4.83444 v -7.187676 -7.187714 h 5.71342 5.66947 l 5.58157,7.187714 5.58158,7.187676 h 5.66946 5.66948 l -0.83504,-1.219703 c -0.48344,-0.653418 -3.03251,-3.920576 -5.71342,-7.231291 l -4.83443,-6.098662 2.15351,-0.696974 c 5.97713,-2.00386 9.05358,-7.231262 8.65804,-14.549656 -0.3516,-6.011538 -3.07646,-10.2805982 -8.04274,-12.5458149 -2.15352,-0.9583594 -2.54906,-1.0019248 -18.54665,-1.1326123 -9.92516,-0.071265 -14.85864,-0.1915418 -16.22415,0.04206 -0.30336,0.051904 -0.19571,0.4491783 -0.16898,0.5153301 z"
       id="path5"
       sodipodi:nodetypes="scscccsccccccccccccccccccccss"
       style="fill:#ffffff;stroke-width:0.0437554" />
    <path
       d="m 278.29787,6.6405079 c -4.13124,1.3068504 -7.86694,4.7917991 -9.22937,8.6688071 -0.65924,1.916724 -0.79109,3.746321 -0.79109,12.502251 0,12.458713 0.30764,13.678396 4.13125,17.424716 4.08728,4.007709 4.79048,4.138418 20.70016,4.138418 h 13.40456 l 0.58631,-0.133475 c 1.70385,-0.78956 4.11645,-1.965411 5.96192,-3.617983 1.81992,-1.629706 3.08067,-3.730522 3.64804,-5.309426 0.65924,-1.916727 0.79108,-3.702754 0.79108,-12.284437 0,-6.839212 -0.1758,-10.585534 -0.57134,-11.848826 -1.31848,-4.356187 -5.22998,-8.1460687 -9.88861,-9.4964856 -2.98856,-0.8712382 -25.8862,-0.9147988 -28.74291,-0.043557 z m 26.14989,8.9301801 c 3.12041,1.568224 3.38411,2.613709 3.38411,12.328001 0,9.409377 -0.0879,9.670746 -3.03251,11.848812 -1.14268,0.87127 -1.80193,0.914837 -11.82238,0.914837 -12.21794,0 -12.92114,-0.174296 -14.41542,-3.397838 -0.70319,-1.568244 -0.83503,-2.918656 -0.83503,-9.452934 0,-7.100579 0.088,-7.79757 1.01083,-9.583608 1.67008,-3.310703 2.46118,-3.484949 14.06382,-3.484949 8.96568,0 10.19625,0.08709 11.64658,0.827679 z"
       id="path7"
       sodipodi:nodetypes="ccscsccscsccccscscscsc"
       style="fill:#ffffff;stroke-width:0.0437554" />
    <g
       id="g5"
       transform="translate(1.1219458)">
      <path
         d="m 217.11394,6.9476631 c 0.79152,1.5886877 2.90966,5.1682739 3.88777,6.5440229 l 0.89779,1.251323 h 19.16194 19.16194 v -4.35618 -4.3561883 h -21.79889 -21.75497 z"
         id="path6"
         sodipodi:nodetypes="cccccccccc"
         style="fill:#ffffff;stroke-width:0.0437554" />
      <path
         d="m 216.71348,37.177387 v 12.415087 h 4.83443 4.83443 l 0.0879,-8.189605 0.13185,-8.146068 16.17337,-0.08731 16.21733,-0.08731 0.044,-4.138349 0.0879,-4.181935 h -21.18368 -21.22756 z"
         id="path9"
         style="fill:#ffffff;stroke-width:0.0437554" />
    </g>
    <g
       id="g4"
       transform="translate(1.67036)">
      <path
         d="m 122.18467,10.386829 v 4.35618 h 18.23896 18.23903 v -4.35618 -4.3561883 h -18.23903 -18.23896 z"
         id="path4"
         style="fill:#e6371c;fill-opacity:1;stroke-width:0.0437554" />
      <path
         d="m 122.18467,27.593754 v 4.138349 h 18.23896 18.23903 v -4.138349 -4.138369 h -18.23903 -18.23896 z"
         id="path8"
         style="fill:#e6371c;fill-opacity:1;stroke-width:0.0437554" />
      <path
         d="m 122.18467,45.236282 v 4.356192 h 18.23896 18.23903 v -4.356192 -4.356201 h -18.23903 -18.23896 z"
         id="path12"
         style="fill:#e6371c;fill-opacity:1;stroke-width:0.0437554" />
    </g>
    <g
       id="g1"
       transform="matrix(0.99308685,0,0,0.98432988,0,-5.4598832)">
      <path
         d="M 32.179214,47.207328 V 62.03287 h 14.825581 14.82555 V 47.207328 32.381787 H 47.004795 32.179214 Z"
         id="path2"
         style="fill:#e6371c;fill-opacity:1;stroke-width:0.0442555" />
      <path
         d="m 10.377164,47.207343 -0.03273,5.388115 h 5.551408 5.567717 v -5.388115 -5.388144 h -5.53506 -5.535091 z"
         id="path10"
         style="fill:#ffffff;stroke-width:0.0163277" />
      <path
         d="m 41.477947,16.323078 -0.03273,5.388115 h 5.551408 5.567717 v -5.388115 -5.388144 h -5.53506 -5.535091 z"
         id="path10-3"
         style="fill:#ffffff;stroke-width:0.0163277" />
      <path
         d="m 4.8503225,16.323062 -0.06545,10.776264 H 15.887687 27.02312 V 16.323062 5.5468022 H 15.95299 4.8828116 Z"
         id="path10-6"
         style="fill:#ffffff;fill-opacity:1;stroke-width:0.0326555" />
      <circle
         id="path13"
         style="fill:#000000;stroke:#000000;stroke-width:0.331917"
         cx="0.19590373"
         cy="18.185066"
         r="0.029945243" />
    </g>
  </g>
</svg>
